<?xml version="1.0" encoding="utf-8"?>
<!-- Svg Vector Icons : http://www.onlinewebfonts.com/icon -->
<!DOCTYPE svg PUBLIC "-//W3C//DTD SVG 1.1//EN" "http://www.w3.org/Graphics/SVG/1.1/DTD/svg11.dtd">
<svg version="1.1" xmlns="http://www.w3.org/2000/svg" xmlns:xlink="http://www.w3.org/1999/xlink" x="0px" y="0px" viewBox="0 0 1000 1000" enable-background="new 0 0 1000 1000" xml:space="preserve">
<metadata> Svg Vector Icons : http://www.onlinewebfonts.com/icon </metadata>
<g><path d="M892,990H108c-36.1,0-65.3-61.9-65.3-98V173.4c0-36.1,29.2-65.3,65.3-65.3h98v32.7c0,54.1,43.9,98,98,98c54.1,0,98-43.9,98-98V108h196v32.7c0,54.1,43.9,98,98,98c54.2,0,98-43.9,98-98V108h98c36.1,0,65.3,29.2,65.3,65.3V892C957.4,928.1,928.1,990,892,990L892,990z M859.3,336.7H140.7V892h718.7V336.7L859.3,336.7z M304,500h-98v-98h98V500L304,500z M304,663.3h-98v-98h98V663.3L304,663.3z M304,826.6h-98v-98h98V826.6L304,826.6z M467.3,500h-98v-98h98V500L467.3,500z M467.3,663.3h-98v-98h98V663.3L467.3,663.3z M467.3,826.6h-98v-98h98V826.6L467.3,826.6z M630.7,500h-98v-98h98V500L630.7,500z M630.7,663.3h-98v-98h98V663.3L630.7,663.3z M630.7,826.6h-98v-98h98V826.6L630.7,826.6z M794,500h-98v-98h98V500L794,500z M794,663.3h-98v-98h98V663.3L794,663.3z M794,826.6h-98v-98h98V826.6L794,826.6z M695,206c-35.5,0-64.3-28.8-64.3-64.3V74.3c0-35.5,28.8-64.3,64.3-64.3c35.5,0,64.3,28.8,64.3,64.3v67.4C759.3,177.2,730.5,206,695,206L695,206z M303,206c-35.5,0-64.3-28.8-64.3-64.3V74.3c0-35.5,28.8-64.3,64.3-64.3c35.5,0,64.3,28.8,64.3,64.3v67.4C367.3,177.2,338.5,206,303,206L303,206z"/></g>
</svg>